<svg width="128" height="32" viewBox="0 0 128 32" fill="none" xmlns="http://www.w3.org/2000/svg">
<g clip-path="url(#clip0_4614_1586)">
<path d="M26.3726 15.0288C26.1069 13.1486 24.9778 11.8342 24.1642 11.0189C22.8025 9.65455 21.4408 8.27357 20.0626 6.89256C18.4684 5.27863 16.8577 3.68135 15.2635 2.06741C13.2709 0.0707997 10.8299 -0.49491 8.18957 0.436842C5.49945 1.38524 3.8057 3.59815 3.75589 6.24366C3.73927 7.09224 3.72266 8.15709 3.72266 9.27186C3.72266 9.73773 3.95513 9.95405 3.95513 9.95405L5.59909 11.6013C5.79837 11.7676 6.1969 11.7011 6.1969 11.4681C6.1969 9.65455 6.21349 7.64129 6.23009 6.2603C6.2633 4.66302 7.29286 3.34857 9.00325 2.74959C10.7468 2.13397 12.1749 2.46674 13.5034 3.7978C15.0975 5.41175 16.7082 7.00904 18.3024 8.62296C19.664 10.004 21.0257 11.3683 22.4039 12.7493C23.3172 13.6644 23.7822 14.4797 23.915 15.3615C24.1143 16.7592 23.7491 17.8906 22.8191 18.8556C21.4408 20.2532 20.0293 21.6675 18.6677 23.0153C16.9407 24.7289 15.1639 26.5092 13.4369 28.2895C12.3908 29.3711 10.7966 29.7871 9.26894 29.3546C7.94048 28.9885 6.94415 28.0567 6.51242 26.842C6.36297 26.4428 5.93121 26.5759 5.81495 26.6756L4.61936 27.8738C4.61936 27.8738 4.51974 27.9901 4.50313 28.1399C4.48653 28.3063 4.50313 28.4394 4.58617 28.5725C5.41645 30.1032 6.82791 31.2346 8.60471 31.7339C9.21911 31.9002 9.85013 32 10.4811 32C12.2579 32 13.9683 31.3011 15.2137 30.02C16.9241 28.2564 18.7009 26.4761 20.4113 24.7623C21.7729 23.398 23.2011 21.9836 24.5793 20.5694C26.0572 19.1052 26.6716 17.1751 26.3726 15.0288Z" fill="#F5F5F7"/>
<path d="M8.65567 20.9851C9.22026 20.4028 9.43614 19.704 9.3199 18.8887C9.23686 18.2731 8.88814 17.7906 8.45639 17.358C7.09473 15.977 5.73308 14.6126 4.35483 13.2316C3.59095 12.4662 2.71086 12.2499 1.68132 12.616C0.684988 12.9654 0.0373707 13.7641 0.0207651 14.7624C-0.0124461 16.2432 0.00414329 19.2215 0.00414329 19.2215C0.00414329 20.4694 0.00414329 21.7172 0.00414329 22.9652C0.00414329 23.3644 0.00414329 23.7804 0.0871713 24.1631C0.518916 26.0765 2.97655 26.6922 4.30499 25.3277C5.76629 23.8802 7.22759 22.4492 8.65567 20.9851Z" fill="#F5F5F7"/>
<path d="M36.4356 22.6823C36.1035 22.6823 35.9375 22.4993 35.9375 22.1831V9.68763C35.9375 9.35488 36.1202 9.18848 36.4356 9.18848H39.8232C43.7918 9.18848 45.8677 11.5012 45.8677 15.9437C45.8677 20.3862 43.7918 22.6988 39.8232 22.6988H36.4356V22.6823ZM43.2606 15.9271C43.2606 12.7491 42.1813 11.235 40.039 11.235H38.4117V20.6524H40.039C42.1813 20.6524 43.2606 19.1217 43.2606 15.9271Z" fill="#F5F5F7"/>
<path d="M57.9906 9.6877V18.2898C57.9906 21.2015 56.1639 23.0317 53.0754 23.0317C49.97 23.0317 48.1602 21.2015 48.1602 18.2898V9.6877C48.1602 9.35492 48.3427 9.18854 48.6583 9.18854H50.1362C50.4684 9.18854 50.6343 9.37156 50.6343 9.6877V18.2399C50.6343 20.0202 51.4811 21.0018 53.0754 21.0018C54.6694 21.0018 55.4996 20.0368 55.4996 18.2399V9.6877C55.4996 9.35492 55.6989 9.18854 56.0145 9.18854H57.4591C57.7913 9.1719 57.9906 9.35492 57.9906 9.6877Z" fill="#F5F5F7"/>
<path d="M60.9961 22.2661V9.77064C60.9961 9.43786 61.1788 9.27148 61.4944 9.27148H63.6033C63.8856 9.27148 64.035 9.42122 64.1844 9.70408L67.4722 15.644L70.6605 9.70408C70.8598 9.3713 70.9262 9.27148 71.2253 9.27148H73.3342C73.6661 9.27148 73.8654 9.4545 73.8654 9.77064V22.2661C73.8654 22.5989 73.6661 22.7653 73.3342 22.7653H72.0056C71.6901 22.7653 71.5075 22.5823 71.5075 22.2661V17.1248C71.5572 15.5276 71.5905 12.5659 71.5905 12.5659L68.8173 17.5741C68.6514 17.8569 68.5516 18.0067 68.2528 18.0067H66.7417C66.4427 18.0067 66.3266 17.8569 66.177 17.5741L63.2877 12.333C63.2877 12.333 63.3707 15.5276 63.3707 17.1248V22.2661C63.3707 22.5989 63.1882 22.7653 62.8726 22.7653H61.5441C61.1788 22.7653 60.9961 22.5823 60.9961 22.2661Z" fill="#F5F5F7"/>
<path d="M77.0391 22.1831V9.68763C77.0391 9.35488 77.2218 9.18848 77.5372 9.18848H80.7588C84.3289 9.18848 86.3383 10.7525 86.3383 13.5145C86.3383 16.343 84.3289 17.9902 80.7753 17.9902H79.5132V22.1831C79.5132 22.5159 79.3307 22.6823 79.0151 22.6823H77.5372C77.2218 22.6823 77.0391 22.5159 77.0391 22.1831ZM80.9912 16.1101C82.8843 16.1101 83.7975 15.2449 83.7975 13.5311C83.7975 11.9338 82.8843 11.0686 81.124 11.0686H79.5132V16.1101H80.9912Z" fill="#F5F5F7"/>
<path d="M88.928 22.6823C88.5959 22.6823 88.4297 22.4993 88.4297 22.1831V9.68763C88.4297 9.35488 88.6124 9.18848 88.928 9.18848H92.3156C96.2842 9.18848 98.3598 11.5012 98.3598 15.9437C98.3598 20.3862 96.2842 22.6988 92.3156 22.6988H88.928V22.6823ZM95.7528 15.9271C95.7528 12.7491 94.6734 11.235 92.5314 11.235H90.9041V20.6524H92.5314C94.6734 20.6524 95.7528 19.1217 95.7528 15.9271Z" fill="#F5F5F7"/>
<path d="M98.6403 22.1167L102.476 9.60447C102.559 9.32161 102.758 9.17188 103.057 9.17188H105.282C105.565 9.17188 105.781 9.30497 105.864 9.60447L109.7 22.1167C109.799 22.466 109.617 22.6823 109.268 22.6823H107.723C107.441 22.6823 107.225 22.5658 107.159 22.2498L106.412 19.5376H101.895L101.148 22.2498C101.065 22.5658 100.882 22.6823 100.583 22.6823H99.072C98.7065 22.6823 98.524 22.466 98.6403 22.1167ZM105.93 17.6575L104.17 11.1186H104.137L102.376 17.6575H105.93Z" fill="#F5F5F7"/>
<path d="M112.025 22.1831V17.6075L108.023 9.78747C107.84 9.42141 107.99 9.18848 108.371 9.18848H109.966C110.265 9.18848 110.447 9.3216 110.564 9.55453L113.27 15.4113L116.043 9.55453C116.16 9.3216 116.359 9.18848 116.625 9.18848H118.169C118.551 9.18848 118.717 9.42141 118.534 9.78747L114.499 17.6075V22.1831C114.499 22.5159 114.3 22.6823 114.001 22.6823H112.523C112.191 22.6823 112.025 22.5159 112.025 22.1831Z" fill="#F5F5F7"/>
<path d="M118.701 21.3851C118.469 21.202 118.452 20.9525 118.618 20.7029L119.183 19.8543C119.365 19.5881 119.598 19.5548 119.863 19.7711C120.744 20.4367 121.972 20.8859 122.969 20.8859C124.53 20.8859 125.426 20.1871 125.46 19.0557C125.476 17.5083 124.38 17.1589 122.62 16.5932C120.843 15.9942 118.867 15.2122 118.867 12.7497C118.867 10.437 120.644 8.92285 123.4 8.92285C124.696 8.92285 126.107 9.33883 127.087 9.98772C127.352 10.1541 127.386 10.4203 127.203 10.6865L126.655 11.4852C126.489 11.7348 126.257 11.7847 125.974 11.6183C125.227 11.1524 124.297 10.8862 123.517 10.8862C122.188 10.8862 121.375 11.5185 121.375 12.5334C121.375 13.7147 122.354 14.0808 123.965 14.6132C125.808 15.1789 128 15.911 128 18.7895C128 21.3019 125.924 22.8325 123.068 22.8325C121.491 22.8826 119.847 22.3167 118.701 21.3851Z" fill="#F5F5F7"/>
</g>
<defs>
<clipPath id="clip0_4614_1586">
<rect width="128" height="32" fill="white"/>
</clipPath>
</defs>
</svg>
