<svg width="24" height="30" viewBox="0 0 24 30" fill="none" xmlns="http://www.w3.org/2000/svg">
<path d="M23.9151 14.1162C23.6635 12.7321 22.9585 11.468 21.9085 10.5186L18.186 6.82323C16.7358 5.38264 15.2836 3.94204 13.8295 2.50145C13.0367 1.64872 12.0016 1.05255 10.8599 0.791044C9.71825 0.52954 8.52327 0.614903 7.43154 1.03595C6.29815 1.37671 5.30038 2.05794 4.57695 2.98492C3.85352 3.9119 3.44038 5.03858 3.39498 6.2083C3.39498 6.97265 3.39498 7.93241 3.39498 8.92665C3.36481 9.15565 3.42295 9.38748 3.55784 9.57607L5.06428 11.0473C5.23877 11.1967 5.61102 11.1393 5.6052 10.9324C5.6052 9.30021 5.6052 7.48414 5.6401 6.26577C5.67016 5.54529 5.93073 4.8528 6.38433 4.28791C6.83792 3.72303 7.46117 3.31486 8.1644 3.12213C8.85745 2.84106 9.62189 2.78024 10.3515 2.94811C11.0812 3.11599 11.7398 3.50423 12.2359 4.0589L16.5923 8.38643L20.3148 12.076C21.033 12.6872 21.5226 13.519 21.7049 14.4381C21.8102 15.0003 21.7741 15.5795 21.5996 16.1247C21.4252 16.6698 21.1178 17.1643 20.7045 17.5645C19.4598 18.8173 18.1802 20.0759 16.9355 21.3001C15.3709 22.8403 13.7481 24.4322 12.1777 26.0299C11.6927 26.5104 11.0855 26.8526 10.4201 27.0205C9.75473 27.1884 9.05579 27.1758 8.39706 26.9839C7.82609 26.835 7.29974 26.5526 6.86243 26.1605C6.42511 25.7684 6.08967 25.2781 5.88439 24.731C5.86145 24.6724 5.82434 24.6203 5.77631 24.5791C5.72827 24.5379 5.67077 24.509 5.60882 24.4948C5.54686 24.4806 5.48234 24.4817 5.42088 24.4978C5.35942 24.5139 5.30289 24.5447 5.25622 24.5874L4.17437 25.6563C4.11394 25.7269 4.07377 25.8123 4.05805 25.9034C4.03536 26.0385 4.06217 26.177 4.13366 26.2942C4.5185 26.9859 5.04102 27.5935 5.66976 28.0805C6.29849 28.5674 7.02045 28.9236 7.79216 29.1275C8.34502 29.2803 8.91645 29.3577 9.49054 29.3574C10.2918 29.3615 11.0857 29.2064 11.8251 28.9013C12.5645 28.5962 13.2342 28.1474 13.7946 27.5816C15.3534 25.9954 16.9646 24.4092 18.5292 22.8747C19.7739 21.6506 21.0593 20.3863 22.3156 19.1219C22.9678 18.4747 23.4534 17.6823 23.7317 16.8114C24.01 15.9404 24.0729 15.0162 23.9151 14.1162Z" fill="#F5F5F7"/>
<path d="M7.83868 19.4664C8.08059 19.2231 8.25972 18.9259 8.36095 18.5998C8.46218 18.2737 8.48254 17.9284 8.42031 17.5929C8.32823 17.0653 8.06243 16.5824 7.66419 16.2193L3.94171 12.5182C3.64637 12.1876 3.25499 11.9549 2.82094 11.8521C2.38688 11.7492 1.93129 11.7812 1.51628 11.9435C1.08249 12.0684 0.701043 12.3283 0.428603 12.6844C0.156163 13.0406 0.00726558 13.4741 0.00402886 13.9205C0.00402886 15.2538 0.00402886 17.9435 0.00402886 17.9435C0.00402886 19.0641 0.00402886 20.1791 0.00402886 21.2997C-0.00971351 21.6439 0.0117215 21.9886 0.0680087 22.3285C0.168395 22.7153 0.370548 23.0691 0.653962 23.3538C0.937375 23.6386 1.29197 23.8442 1.68177 23.9498C2.07156 24.0554 2.4827 24.0573 2.87347 23.9552C3.26424 23.8532 3.62074 23.6508 3.90681 23.3687C5.19805 22.0526 6.52999 20.7768 7.83286 19.4664" fill="#F5F5F7"/>
</svg>
