<svg width="74" height="19" viewBox="0 0 74 19" fill="none" xmlns="http://www.w3.org/2000/svg">
<path d="M0 0.543926V17.784H3.83113V12.2975H7.63862C9.53053 12.2975 11.0441 11.7535 12.2029 10.6893C13.3617 9.60148 13.9292 8.18254 13.9292 6.40887C13.9292 4.6352 13.3617 3.21626 12.2029 2.15206C11.0677 1.08785 9.55418 0.543926 7.63862 0.543926H0ZM3.83113 9.0339V3.94938H7.11834C8.96296 3.94938 9.88527 4.77709 9.88527 6.45617C9.88527 8.18254 8.96296 9.0339 7.11834 9.0339H3.83113Z" fill="white"/>
<path d="M18.0916 17.784V12.3684C18.0916 9.55418 19.416 7.99335 22.1593 8.017V4.87169C20.1964 4.87169 18.8721 5.7467 18.2335 7.52037H18.0916L17.6423 5.10818H14.497V17.784H18.0916Z" fill="white"/>
<path d="M27.7474 4.87169C25.8319 4.87169 24.2947 5.48656 23.1359 6.69266C21.9771 7.89875 21.3859 9.48323 21.3859 11.4461C21.3859 13.409 21.9771 14.9934 23.1359 16.1995C24.2947 17.4056 25.8319 17.9969 27.7474 17.9969C29.6394 17.9969 31.1765 17.4056 32.3353 16.1995C33.4941 14.9934 34.0854 13.409 34.0854 11.4697C34.0854 9.50688 33.4941 7.9224 32.3353 6.71631C31.1765 5.48656 29.6394 4.87169 27.7474 4.87169ZM25.0515 11.4461C25.0515 9.27039 26.0684 7.85146 27.7001 7.85146C29.4029 7.85146 30.3961 9.2231 30.3961 11.4224C30.3961 13.6218 29.4029 15.0407 27.7238 15.0407C26.092 15.0407 25.0515 13.6927 25.0515 11.4461Z" fill="white"/>
<path d="M39.5307 5.10818V4.4933C39.5307 3.45275 40.1219 2.93247 41.2807 2.93247C41.6355 2.93247 41.9666 2.97977 42.3213 3.05072V0.212841C41.8483 0.0709475 41.2571 0 40.5476 0C37.6861 0 35.9124 1.41894 35.9124 4.23316V5.10818H33.5475V8.017H35.9124V17.784H39.5307V8.017H43.9767V17.784H47.595V5.10818H39.5307ZM43.9767 3.78383H47.595V0.283788H43.9767V3.78383Z" fill="white"/>
<path d="M56.9268 13.1252C56.7612 14.284 55.9098 15.0644 54.5855 15.0644C52.9537 15.0644 51.9605 13.8346 51.9605 11.4697C51.9605 9.19945 52.8355 7.85146 54.6091 7.85146C55.8152 7.85146 56.7139 8.46633 56.9268 9.69608H60.4977C60.3795 8.22984 59.7883 7.07104 58.7004 6.19603C57.6362 5.32102 56.2882 4.87169 54.6564 4.87169C52.7409 4.87169 51.2037 5.48656 50.0449 6.69266C48.8861 7.89875 48.2949 9.48323 48.2949 11.4461C48.2949 13.409 48.8625 15.0171 50.0213 16.2232C51.18 17.4293 52.6936 18.0205 54.6091 18.0205C56.2882 18.0205 57.6599 17.5712 58.7477 16.6725C59.8356 15.7739 60.4268 14.5914 60.4977 13.1252H56.9268Z" fill="white"/>
<path d="M66.7368 4.87169C64.8213 4.87169 63.2841 5.48656 62.1253 6.69266C60.9665 7.89875 60.3753 9.48323 60.3753 11.4461C60.3753 13.409 60.9665 14.9934 62.1253 16.1995C63.2841 17.4056 64.8213 17.9969 66.7368 17.9969C68.6287 17.9969 70.1659 17.4056 71.3247 16.1995C72.4835 14.9934 73.0748 13.409 73.0748 11.4697C73.0748 9.50688 72.4835 7.9224 71.3247 6.71631C70.1659 5.48656 68.6287 4.87169 66.7368 4.87169ZM64.0408 11.4461C64.0408 9.27039 65.0577 7.85146 66.6895 7.85146C68.3923 7.85146 69.3855 9.2231 69.3855 11.4224C69.3855 13.6218 68.3923 15.0407 66.7132 15.0407C65.0814 15.0407 64.0408 13.6927 64.0408 11.4461Z" fill="white"/>
</svg>
